<svg height="130" viewBox="0 0 130 130" width="130" xmlns="http://www.w3.org/2000/svg" xmlns:xlink="http://www.w3.org/1999/xlink"><linearGradient id="a" x1="50%" x2="50%" y1="0%" y2="100%"><stop offset="0" stop-color="#dbd6d0"/><stop offset="1" stop-color="#d1cbc5"/></linearGradient><linearGradient id="b" x1="50%" x2="50%" y1="-16.326135%" y2="124.632307%"><stop offset="0" stop-color="#ffa442"/><stop offset="1" stop-color="#ff8500"/></linearGradient><g fill="none" fill-rule="nonzero" transform="translate(2)"><path d="m35.693224 0h53.663152c12.411312 0 16.911953 1.29227523 21.449343 3.71889795 4.53739 2.42662273 8.09836 5.98759296 10.524983 10.52498295 2.426623 4.53739 3.718898 9.0380315 3.718898 21.4493431v53.663152c0 12.411312-1.292275 16.911953-3.718898 21.449343s-5.987593 8.09836-10.524983 10.524983-9.038031 3.718898-21.449343 3.718898h-53.663152c-12.4113116 0-16.9119531-1.292275-21.4493431-3.718898-4.53738999-2.426623-8.09836022-5.987593-10.52498295-10.524983-2.42662272-4.53739-3.71889795-9.038031-3.71889795-21.449343v-53.663152c0-12.4113116 1.29227523-16.9119531 3.71889795-21.4493431 2.42662273-4.53738999 5.98759296-8.09836022 10.52498295-10.52498295 4.53739-2.42662272 9.0380315-3.71889795 21.4493431-3.71889795z" fill="#fff"/><path d="m47.6263125 32.2274886h-3.419325c-.5395546 0-.97695-.4373954-.97695-.97695v-1.9301772c0-2.9239587.2990398-4.4725141 1.1619356-6.0859888.8053087-1.5057964 2.0045906-2.7050783 3.510387-3.510387 1.6134747-.8628958 3.1620301-1.1619356 6.0859888-1.1619356h17.0729022c2.9239587 0 4.4725141.2990398 6.0859888 1.1619356 1.5057964.8053087 2.7050783 2.0045906 3.510387 3.510387.8628958 1.6134747 1.1619356 3.1620301 1.1619356 6.0859888v1.9301772c0 .5395546-.4373954.97695-.97695.97695h-3.419325c-.8093319 0-1.465425-.6560931-1.465425-1.465425v-1.4417022c0-2.0390488-.1225042-2.6734279-.46916-3.3216178-.2589995-.4842869-.6215467-.8468341-1.1058336-1.1058336-.6481899-.3466558-1.282569-.46916-3.3216178-.46916h-17.0729022c-2.0390488 0-2.6734279.1225042-3.3216178.46916-.4842869.2589995-.8468341.6215467-1.1058336 1.1058336-.3466558.6481899-.46916 1.282569-.46916 3.3216178v1.4417022c0 .8093319-.6560931 1.465425-1.465425 1.465425z" fill="url(#a)"/><path d="m29.3698774 33.704775h66.3098452c5.1169444 0 6.9724714.5327801 8.8431504 1.5332299 1.870678 1.0004497 3.338797 2.468569 4.339247 4.3392473s1.53323 3.726206 1.53323 8.8431502v39.9321952c0 5.1169442-.53278 6.9724719-1.53323 8.8431502s-2.468569 3.3387972-4.339247 4.3392472c-1.870679 1.00045-3.726206 1.53323-8.8431504 1.53323h-66.3098452c-5.1169442 0-6.9724719-.53278-8.8431502-1.53323s-3.3387976-2.4685689-4.3392473-4.3392472c-1.0004498-1.8706783-1.5332299-3.726206-1.5332299-8.8431502v-39.9321952c0-5.1169442.5327801-6.9724719 1.5332299-8.8431502 1.0004497-1.8706783 2.468569-3.3387976 4.3392473-4.3392473 1.8706783-1.0004498 3.726206-1.5332299 8.8431502-1.5332299z" fill="url(#b)"/><rect fill="#f2ebe4" height="70.828875" rx=".732713" width="5.373225" x="87.681263" y="32.972063"/><rect fill="#f2ebe4" height="70.828875" rx=".732713" width="5.373225" x="31.995113" y="32.972063"/><g fill="#ded8d2"><path d="m88.1697375 30.0412125h4.396275c.5395546 0 .97695.4373954.97695.97695v.7327125c0 .2697773-.2186977.488475-.488475.488475h-5.373225c-.2697773 0-.488475-.2186977-.488475-.488475v-.7327125c0-.5395546.4373954-.97695.97695-.97695z"/><path d="m32.4835875 30.0412125h4.396275c.5395546 0 .97695.4373954.97695.97695v.7327125c0 .2697773-.2186977.488475-.488475.488475h-5.373225c-.2697773 0-.488475-.2186977-.488475-.488475v-.7327125c0-.5395546.4373954-.97695.97695-.97695z"/></g></g></svg>