<svg height="200" viewBox="0 0 200 200" width="200" xmlns="http://www.w3.org/2000/svg" xmlns:xlink="http://www.w3.org/1999/xlink"><linearGradient id="a" x1="50%" x2="50%" y1="0%" y2="100%"><stop offset="0" stop-color="#dbd6d0"/><stop offset="1" stop-color="#d1cbc5"/></linearGradient><linearGradient id="b" x1="50%" x2="50%" y1="-16.326135%" y2="124.632307%"><stop offset="0" stop-color="#ffa442"/><stop offset="1" stop-color="#ff8500"/></linearGradient><g fill="none" fill-rule="nonzero" transform="translate(2)"><path d="m55.7706624 0h83.8486756c19.392674 0 26.424926 2.01918004 33.514598 5.81077805s12.653688 9.35561395 16.445286 16.44528585 5.810778 14.1219242 5.810778 33.5145985v83.8486756c0 19.392674-2.01918 26.424926-5.810778 33.514598s-9.355614 12.653688-16.445286 16.445286-14.121924 5.810778-33.514598 5.810778h-83.8486756c-19.3926743 0-26.4249266-2.01918-33.5145985-5.810778s-12.65368784-9.355614-16.44528585-16.445286-5.81077805-14.121924-5.81077805-33.514598v-83.8486756c0-19.3926743 2.01918004-26.4249266 5.81077805-33.5145985s9.35561395-12.65368784 16.44528585-16.44528585 14.1219242-5.81077805 33.5145985-5.81077805z" fill="#fff"/><path d="m74.4161133 50.3554509h-5.3426953c-.8430541 0-1.5264844-.6834303-1.5264844-1.5264843v-3.0159019c0-4.5686854.4672497-6.9883032 1.8155243-9.5093575 1.2582949-2.352807 3.1321728-4.2266848 5.4849797-5.4849797 2.5210543-1.3482746 4.9406721-1.8155244 9.5093575-1.8155244h26.6764099c4.568685 0 6.988303.4672498 9.509357 1.8155244 2.352807 1.2582949 4.226685 3.1321727 5.48498 5.4849797 1.348275 2.5210543 1.815524 4.9406721 1.815524 9.5093575v3.0159019c0 .843054-.68343 1.5264843-1.526484 1.5264843h-5.342695c-1.264581 0-2.289727-1.0251455-2.289727-2.2897265v-2.2526597c0-3.1860138-.191413-4.177231-.733062-5.1900278-.404687-.7566983-.971167-1.3231783-1.727865-1.727865-1.012797-.5416497-2.004014-.7330625-5.190028-.7330625h-26.6764099c-3.1860138 0-4.177231.1914128-5.1900277.7330625-.7566983.4046867-1.3231784.9711667-1.727865 1.727865-.5416497 1.0127968-.7330626 2.004014-.7330626 5.1900278v2.2526597c0 1.264581-1.0251455 2.2897265-2.2897265 2.2897265z" fill="url(#a)"/><path d="m45.8904335 52.6637109h103.6091335c7.995225 0 10.894487.832469 13.817422 2.3956717s5.216871 3.8571391 6.780074 6.780074c1.563202 2.9229349 2.395671 5.8221968 2.395671 13.8174222v62.3940552c0 7.995225-.832469 10.894487-2.395671 13.817422-1.563203 2.922935-3.857139 5.216871-6.780074 6.780074s-5.822197 2.395672-13.817422 2.395672h-103.6091335c-7.9952254 0-10.8944873-.832469-13.8174222-2.395672s-5.2168713-3.857139-6.780074-6.780074-2.3956717-5.822197-2.3956717-13.817422v-62.3940552c0-7.9952254.832469-10.8944873 2.3956717-13.8174222s3.8571391-5.2168713 6.780074-6.780074 5.8221968-2.3956717 13.8174222-2.3956717z" fill="url(#b)"/><rect fill="#f2ebe4" height="110.670117" rx="1.144863" width="8.395664" x="137.001973" y="51.518848"/><rect fill="#f2ebe4" height="110.670117" rx="1.144863" width="8.395664" x="49.992363" y="51.518848"/><g fill="#ded8d2"><path d="m137.765215 46.9393945h6.86918c.843054 0 1.526484.6834304 1.526484 1.5264844v1.1448633c0 .421527-.341715.7632422-.763242.7632422h-8.395664c-.421527 0-.763243-.3417152-.763243-.7632422v-1.1448633c0-.843054.683431-1.5264844 1.526485-1.5264844z"/><path d="m50.7556055 46.9393945h6.8691797c.843054 0 1.5264843.6834304 1.5264843 1.5264844v1.1448633c0 .421527-.3417151.7632422-.7632422.7632422h-8.395664c-.421527 0-.7632422-.3417152-.7632422-.7632422v-1.1448633c0-.843054.6834303-1.5264844 1.5264844-1.5264844z"/></g></g></svg>