<svg height="129" viewBox="0 0 129 129" width="129" xmlns="http://www.w3.org/2000/svg" xmlns:xlink="http://www.w3.org/1999/xlink"><defs><linearGradient id="a" x1="50%" x2="50%" y1="100%" y2="0%"><stop offset="0" stop-color="#fdfaf6"/><stop offset="1" stop-color="#fff"/></linearGradient><path id="b" d="m35.7331047 0h53.5833906c12.4251787 0 16.9308487 1.29371911 21.4733087 3.72305315 4.54246 2.42933403 8.107409 5.994283 10.536743 10.53674275 2.429334 4.5424597 3.723053 9.0481298 3.723053 21.4733088v53.5833906c0 12.4251787-1.293719 16.9308487-3.723053 21.4733087s-5.994283 8.107409-10.536743 10.536743-9.04813 3.723053-21.4733087 3.723053h-53.5833906c-12.425179 0-16.9308491-1.293719-21.4733088-3.723053-4.54245975-2.429334-8.10740872-5.994283-10.53674275-10.536743-2.42933404-4.54246-3.72305315-9.04813-3.72305315-21.4733087v-53.5833906c0-12.425179 1.29371911-16.9308491 3.72305315-21.4733088 2.42933403-4.54245975 5.994283-8.10740872 10.53674275-10.53674275 4.5424597-2.42933404 9.0481298-3.72305315 21.4733088-3.72305315z"/><linearGradient id="c" x1="50%" x2="50%" y1="-16.326135%" y2="124.632307%"><stop offset="0" stop-color="#ffa442"/><stop offset="1" stop-color="#ff6800"/></linearGradient><mask id="d" fill="#fff"><path d="m0 0h125.0496v125.0496h-125.0496z" fill="#fff" fill-rule="evenodd"/></mask><mask id="e" fill="#fff"><use fill="#fff" fill-rule="evenodd" xlink:href="#b"/></mask></defs><g fill="none" fill-rule="nonzero" mask="url(#d)" transform="translate(2)"><use fill="url(#a)" xlink:href="#b"/><path d="m48.2133955 32.1356514h-4.6206858c-.5401574 0-.9780415-.4378841-.9780415-.9780416v-1.9199982c0-2.9148187.2983179-4.4585334 1.1591307-6.0669646.8033647-1.5010895 1.9997515-2.6966225 3.501913-3.4994139 1.6095799-.8601984 3.1543972-1.1583035 6.0712975-1.1583035h18.0062806c2.9169004 0 4.4617176.2981051 6.0712975 1.1583035 1.5021615.8027914 2.6985483 1.9983244 3.5019131 3.4994139.8608127 1.6084312 1.1591307 3.1521459 1.1591307 6.0669646v1.9199982c0 .5401575-.4378841.9780416-.9780416.9780416h-4.6206858c-.8102361 0-1.4670623-.6568262-1.4670623-1.4670623v-.7005554c0-2.032675-.1222085-2.665071-.4680275-3.3112347-.2583742-.4827731-.6200463-.844187-1.1031641-1.1023769-.6466253-.3455722-1.2794729-.4676935-3.3135996-.4676935h-15.5698014c-2.0341266 0-2.6669743.1221213-3.3135995.4676935-.4831179.2581899-.8447899.6196038-1.1031642 1.1023769-.3458189.6461637-.4680274 1.2785597-.4680274 3.3112347v.7005554c0 .8102361-.6568262 1.4670623-1.4670624 1.4670623z" fill="#b3a494" mask="url(#e)"/><path d="m30.9699344 33.5328536h63.1097312c5.6676255 0 7.7228434.5901175 9.7948424 1.6982348s3.698116 2.7342344 4.806234 4.8062335c1.108117 2.0719992 1.698235 4.1272171 1.698235 9.7948426v36.9121894c0 5.6676255-.590118 7.7228435-1.698235 9.7948426-1.108118 2.0719992-2.734235 3.6981165-4.806234 4.8062335s-4.1272169 1.698235-9.7948424 1.698235h-63.1097312c-5.6676255 0-7.7228435-.590118-9.7948427-1.698235-2.0719991-1.108117-3.6981162-2.7342343-4.8062335-4.8062335-1.1081172-2.0719991-1.6982347-4.1272171-1.6982347-9.7948426v-36.9121894c0-5.6676255.5901175-7.7228434 1.6982347-9.7948426 1.1081173-2.0719991 2.7342344-3.6981162 4.8062335-4.8062335 2.0719992-1.1081173 4.1272172-1.6982348 9.7948427-1.6982348z" fill="url(#c)" mask="url(#e)"/><rect fill="#f2ebe4" height="70.757116" mask="url(#e)" rx=".733531" stroke="#fff" stroke-width=".500198" width="7.883015" x="85.130135" y="33.084352"/><rect fill="#f2ebe4" height="70.757116" mask="url(#e)" rx=".733531" stroke="#fff" stroke-width=".500198" width="7.883015" x="32.03645" y="33.084352"/><g fill="#b3a494"><path d="m85.8580773 30.039848h6.4271303c.5401574 0 .9780416.4378842.9780416.9780416v.628741c0 .2700787-.2189421.4890208-.4890208.4890208h-7.4051719c-.2700787 0-.4890207-.2189421-.4890207-.4890208v-.628741c0-.5401574.4378841-.9780416.9780415-.9780416z" mask="url(#e)"/><path d="m32.7643924 30.039848h6.4271303c.5401574 0 .9780415.4378842.9780415.9780416v.628741c0 .2700787-.218942.4890208-.4890207.4890208h-7.4051719c-.2700787 0-.4890208-.2189421-.4890208-.4890208v-.628741c0-.5401574.4378842-.9780416.9780416-.9780416z" mask="url(#e)"/></g></g></svg>